<?xml version="1.0" encoding="UTF-8"?>
<svg xmlns="http://www.w3.org/2000/svg" viewBox="0 0 64 64" role="img" aria-label="Bitcoin">
  <circle cx="32" cy="32" r="32" fill="#F7931A"/>
  <g transform="rotate(-14 32 24)" fill="#FFFFFF">
    <path d="M43.06 28.36c.6-4-2.45-6.16-6.62-7.6l1.35-5.42-3.3-.82-1.31 5.28c-.87-.22-1.76-.42-2.65-.62l1.32-5.31-3.3-.82-1.35 5.42c-.72-.16-1.43-.33-2.12-.5l.01-.02-4.55-1.14-.88 3.52s2.45.56 2.4.6c1.34.33 1.58 1.22 1.54 1.93l-1.55 6.18a2.7 2.7 0 0 1 .35.11l-.36-.09-2.16 8.66c-.16.4-.58 1.01-1.52.78.04.05-2.4-.6-2.4-.6l-1.64 3.78 4.29 1.07c.8.2 1.58.41 2.35.6l-1.36 5.47 3.3.82 1.35-5.42c.9.24 1.78.47 2.63.68l-1.35 5.4 3.3.82 1.37-5.46c5.63 1.07 9.86.64 11.64-4.45 1.44-4.1-.07-6.46-3.03-8 2.16-.5 3.78-1.92 4.21-4.86zM35.5 39.16c-1.02 4.1-7.92 1.88-10.16 1.32l1.81-7.26c2.24.56 9.4 1.66 8.35 5.94zm1.02-10.86c-.93 3.73-6.68 1.83-8.55 1.36l1.64-6.58c1.87.47 7.88 1.34 6.91 5.22z"/>
  </g>
</svg>
